<svg width="512pt" height="512pt" viewBox="0 0 512 512" xmlns="http://www.w3.org/2000/svg"><path d="M128.93 78.1c1.83-.08 3.67-.03 5.52-.06.06 40.64-.01 81.29.03 121.93 1.38 2.92 3.54 5.52 5.93 7.73 39.29 39.34 78.65 78.59 117.91 117.97 41.43-41.38 82.84-82.78 124.2-124.21.23-41.13.01-82.27.11-123.41 1.83.01 3.67-.01 5.52.02.02 41.72.02 83.43 0 125.14-.49 1.35-1.77 2.18-2.7 3.2-19.53 19.54-39.07 39.06-58.59 58.6 20.81 20.81 41.6 41.66 62.45 62.43-22.76 23.16-45.91 45.97-68.82 69-20.75 20.69-41.39 41.48-62.19 62.11-43.58-43.71-87.27-87.33-130.93-130.96 20.77-20.92 41.7-41.68 62.49-62.58-20.31-20.31-40.57-40.71-60.99-60.91.1-42-.02-84.01.06-126m6.28 249.52c41.07 40.97 82.05 82.02 123.07 123.03 41.21-40.87 82.12-82.09 123.24-123.08-19.47-19.55-38.98-39.05-58.52-58.52-21.35 20.93-42.38 42.28-63.57 63.4-.34.23-1.03.69-1.37.92-21.21-21.64-42.82-42.92-64.22-64.38-19.61 19.46-39.17 39.01-58.63 58.63Z"/></svg>